<svg xmlns="http://www.w3.org/2000/svg" viewBox="0 0 585 130" fill="#e60012">
  <path d="M50.2 43.5c-.3-2.2-.5-4.4-.5-6.6 0-20 16.5-36.5 36.5-36.5 12.7 0 24.4 6.7 30.9 17.5l-30.5 55.2C68 72 55 60 50.2 43.5z"/>
  <path d="M91.7 80.5L122 25.8c6 11 17.8 34.3 17.8 34.3 6.7 12.8 4.8 26.5-2 36.5-6.5 9.6-18.5 15.5-30.5 15.5-5.5 0-11-1.2-16.2-3.5l.6-28.1z"/>
  <path d="M83.7 84.5l-.6 28.2c-14.5-6-25-18.5-29.5-33.5-2.8-9.2-2.5-18.5.8-27L83.7 84.5z"/>
  <g fill="#231815">
    <path d="M190 30h12v28h30V30h12v70h-12V70h-30v30h-12zM268 30v48c0 9 6 14 14 14s14-5 14-14V30h12v48c0 15-10 24-26 24s-26-9-26-24V30h12z"/>
    <path d="M335 30l18 50 18-50h14l-24 70h-16l-24-70zM406 30h12l26 70h-13l-6-16h-26l-6 16h-13zm6 18l-9 24h18z"/>
    <path d="M452 30h12v70h-12zM484 30h48v12h-36v18h30v12h-30v16h38v12h-50z"/>
    <path d="M546 30h12v70h-12z"/>
  </g>
</svg>
